<svg width="48" height="54" viewBox="0 0 48 54" fill="none" xmlns="http://www.w3.org/2000/svg">
<path d="M29.6443 31.1667C29.6443 28.3889 26.8666 27 24.0888 27C21.311 27 18.5332 28.3889 18.5332 31.1667C18.5332 33.9444 21.311 35.3333 24.0888 35.3333C26.8666 35.3333 29.6443 36.7222 29.6443 39.5C29.6443 42.2778 26.8666 43.6667 24.0888 43.6667C21.311 43.6667 18.5332 42.2778 18.5332 39.5M24.0888 24.2222V46.4445M14.3672 17.2778C10.2005 21.4444 8.81216 25.6111 4.64495 33.9444C0.477734 42.2778 0.478618 52 10.2005 52C19.9224 52 28.2555 52 37.9783 52C47.7011 52 47.7 42.2778 43.5338 33.9445C39.3677 25.6111 37.9782 21.4444 33.8116 17.2778H14.3672ZM14.3672 13.1111H33.8116C36.5894 9.40741 37.9783 7.55555 37.9783 4.77778C37.9783 2 33.811 5.47222 31.0332 5.47222C28.2555 5.47222 26.8672 2 24.0894 2C21.3116 2 19.9221 5.47222 17.1443 5.47222C14.3666 5.47222 10.2005 2 10.2005 4.77778C10.2005 7.55555 12.5153 11.0278 14.3672 13.1111Z" stroke="#D7F7FF" stroke-width="2.5" stroke-linecap="round"/>
</svg>
