<svg width="54" height="54" viewBox="0 0 54 54" fill="none" xmlns="http://www.w3.org/2000/svg">
<path d="M51.0203 22.9387L52.0336 21.8327L52.0336 21.8327L51.0203 22.9387ZM32.7066 52.0028H31.2066V53.5028H32.7066V52.0028ZM21.6881 52.0028V53.5028H23.1881V52.0028H21.6881ZM2.97943 22.9387L1.96612 21.8327L1.96612 21.8327L2.97943 22.9387ZM24.9733 2.78802L23.96 1.68203L23.96 1.68203L24.9733 2.78802ZM29.0265 2.78802L30.0398 1.68203L30.0398 1.68203L29.0265 2.78802ZM48.9937 29.6507C53.0983 29.6507 55.0601 24.6055 52.0336 21.8327L50.007 24.0447C51.0158 24.969 50.3619 26.6507 48.9937 26.6507V29.6507ZM47.6426 29.6507H48.9937V26.6507H47.6426V29.6507ZM46.1426 31.1507C46.1426 30.3223 46.8141 29.6507 47.6426 29.6507V26.6507C45.1573 26.6507 43.1426 28.6654 43.1426 31.1507H46.1426ZM46.1426 49.0028V31.1507H43.1426V49.0028H46.1426ZM41.6426 53.5028C44.1278 53.5028 46.1426 51.4881 46.1426 49.0028H43.1426C43.1426 49.8312 42.471 50.5028 41.6426 50.5028V53.5028ZM32.7066 53.5028H41.6426V50.5028H32.7066V53.5028ZM31.2066 35.3851V52.0028H34.2066V35.3851H31.2066ZM29.7066 33.8851C30.5351 33.8851 31.2066 34.5567 31.2066 35.3851H34.2066C34.2066 32.8999 32.1919 30.8851 29.7066 30.8851V33.8851ZM24.6881 33.8851H29.7066V30.8851H24.6881V33.8851ZM23.1881 35.3851C23.1881 34.5567 23.8597 33.8851 24.6881 33.8851V30.8851C22.2028 30.8851 20.1881 32.8999 20.1881 35.3851H23.1881ZM23.1881 52.0028V35.3851H20.1881V52.0028H23.1881ZM12.7519 53.5028H21.6881V50.5028H12.7519V53.5028ZM8.2519 49.0028C8.2519 51.4881 10.2666 53.5028 12.7519 53.5028V50.5028C11.9235 50.5028 11.2519 49.8312 11.2519 49.0028H8.2519ZM8.2519 31.1507V49.0028H11.2519V31.1507H8.2519ZM6.7519 29.6507C7.58033 29.6507 8.2519 30.3223 8.2519 31.1507H11.2519C11.2519 28.6654 9.23718 26.6507 6.7519 26.6507V29.6507ZM5.00604 29.6507H6.7519V26.6507H5.00604V29.6507ZM1.96612 21.8327C-1.06031 24.6055 0.90144 29.6507 5.00604 29.6507V26.6507C3.63784 26.6507 2.98392 24.969 3.99273 24.0447L1.96612 21.8327ZM23.96 1.68203L1.96612 21.8327L3.99273 24.0447L25.9866 3.89401L23.96 1.68203ZM30.0398 1.68203C28.3196 0.105992 25.6802 0.105989 23.96 1.68203L25.9866 3.89401C26.56 3.36866 27.4398 3.36866 28.0132 3.89401L30.0398 1.68203ZM52.0336 21.8327L30.0398 1.68203L28.0132 3.89401L50.007 24.0447L52.0336 21.8327Z" fill="#D7F7FF"/>
</svg>
