<svg width="42" height="39" viewBox="0 0 42 39" fill="none" xmlns="http://www.w3.org/2000/svg">
<path fill-rule="evenodd" clip-rule="evenodd" d="M25.4 0.300088C24.7373 -0.196968 23.7971 -0.0626534 23.3 0.600088C22.8029 1.26283 22.9373 2.20303 23.6 2.70009L36 12.0001H1.5C0.671573 12.0001 0 12.6717 0 13.5001C0 14.3285 0.671573 15.0001 1.5 15.0001H40.4851C40.7278 15.0023 40.9694 14.9458 41.1872 14.8338C41.3572 14.7464 41.5127 14.6251 41.643 14.4715C41.7597 14.3343 41.8521 14.1759 41.9137 14.0028C41.9303 13.956 41.9446 13.9086 41.9564 13.8608C41.9924 13.715 42.006 13.5656 41.9978 13.4178C41.9866 13.2103 41.9331 13.014 41.846 12.8373C41.7539 12.6499 41.6213 12.4793 41.4502 12.3394C41.4298 12.3227 41.409 12.3065 41.3877 12.2909L25.4 0.300088ZM2.41771 24.0023C2.45096 24.0005 2.48429 23.9998 2.51764 24.0001H40.5C41.3284 24.0001 42 24.6717 42 25.5001C42 26.3285 41.3284 27.0001 40.5 27.0001H7.00001L19.4 36.3001C20.0627 36.7972 20.1971 37.7374 19.7 38.4001C19.2029 39.0629 18.2627 39.1972 17.6 38.7001L1.61402 26.7106C1.58715 26.6909 1.56097 26.6704 1.5355 26.649C1.37385 26.5135 1.2475 26.3502 1.15823 26.1714C1.06857 25.9925 1.01362 25.7933 1.00222 25.5824C0.991792 25.3944 1.01657 25.2038 1.07805 25.0213C1.13795 24.8434 1.2303 24.6803 1.34808 24.5393C1.4845 24.3755 1.6494 24.2476 1.83009 24.1577C2.0086 24.0684 2.20739 24.0137 2.41771 24.0023Z" fill="#D7F7FF"/>
</svg>
