<svg width="50" height="45" viewBox="0 0 50 45" fill="none" xmlns="http://www.w3.org/2000/svg">
<path fill-rule="evenodd" clip-rule="evenodd" d="M30.6 0.300088C29.9372 -0.196968 28.997 -0.0626534 28.5 0.600088C28.0029 1.26283 28.1372 2.20303 28.8 2.70009L43.9995 14.0998H1.50009C0.671661 14.0998 8.82726e-05 14.7713 8.82726e-05 15.5998C8.82726e-05 16.4282 0.671661 17.0998 1.50009 17.0998H48.4738C48.6629 17.1029 48.8515 17.0703 49.0289 17.0036C49.2873 16.9065 49.5218 16.737 49.6997 16.4999C49.9679 16.1423 50.0523 15.704 49.969 15.298C49.9555 15.2319 49.9377 15.1673 49.9158 15.1047C49.821 14.8329 49.6472 14.5855 49.3997 14.3999L30.6 0.300088ZM1.41779 27.0265C1.45099 27.0247 1.48426 27.0239 1.51755 27.0243H48.4994C49.3278 27.0243 49.9994 27.6959 49.9994 28.5243C49.9994 29.3527 49.3278 30.0243 48.4994 30.0243H6.00009L21.1998 41.4241C21.8625 41.9211 21.9969 42.8613 21.4998 43.5241C21.0027 44.1868 20.0625 44.3211 19.3998 43.8241L0.613994 29.7347C0.587166 29.715 0.561017 29.6945 0.535587 29.6731C0.373792 29.5375 0.247363 29.3741 0.158073 29.1951C0.0680029 29.0153 0.0130201 28.8148 0.00210088 28.6027C-0.00769229 28.4174 0.0166833 28.2297 0.0766773 28.0498C0.137042 27.8686 0.231033 27.7028 0.351245 27.5598C0.48682 27.398 0.650257 27.2716 0.82921 27.1823C1.00797 27.0928 1.2071 27.0379 1.41779 27.0265Z" fill="#D7F7FF"/>
</svg>
